<svg width="34" height="34" viewBox="0 0 34 34" fill="none" xmlns="http://www.w3.org/2000/svg">
<path fill-rule="evenodd" clip-rule="evenodd" d="M10.875 0.375H23.125C28.924 0.375 33.625 5.07601 33.625 10.875V23.125C33.625 28.924 28.924 33.625 23.125 33.625H10.875C5.07601 33.625 0.375 28.924 0.375 23.125V10.875C0.375 5.07601 5.07601 0.375 10.875 0.375ZM23.125 31C27.4702 30.9904 30.9904 27.4702 31 23.125V10.875C30.9904 6.52975 27.4702 3.00962 23.125 3H10.875C6.52975 3.00962 3.00962 6.52975 3 10.875V23.125C3.00962 27.4702 6.52975 30.9904 10.875 31H23.125Z" fill="black"/>
<path d="M22.565 8.25C21.8441 8.25943 21.2619 8.84157 21.2525 9.5625C21.2343 10.6672 20.7742 11.7186 19.975 12.4815C19.1759 13.2445 18.1044 13.6554 17 13.6225C14.7253 13.6913 12.8236 11.907 12.7475 9.6325C12.7475 8.90763 12.1599 8.32 11.435 8.32C10.7101 8.32 10.1225 8.90763 10.1225 9.6325C10.1991 13.3566 13.2758 16.3158 17 16.2475C20.7242 16.3158 23.8009 13.3566 23.8775 9.6325C23.8967 9.27244 23.767 8.92033 23.5187 8.65883C23.2705 8.39733 22.9256 8.24949 22.565 8.25Z" fill="black"/>
</svg>
