<?xml version="1.0" encoding="UTF-8"?>
<svg xmlns="http://www.w3.org/2000/svg" xmlns:xlink="http://www.w3.org/1999/xlink" width="500px" height="541px" viewBox="0 0 500 540" version="1.1">
<g id="surface1">
<path style=" stroke:none;fill-rule:nonzero;fill:rgb(97.254902%,69.019608%,74.509804%);fill-opacity:1;" d="M 219.992188 291.085938 C 219.992188 288.164062 219.992188 285.285156 219.992188 282.449219 C 220.035156 285.285156 219.992188 288.164062 219.992188 291.085938 Z M 219.992188 291.085938 "/>
<path style=" stroke:none;fill-rule:nonzero;fill:rgb(97.254902%,69.019608%,74.509804%);fill-opacity:1;" d="M 228.367188 237.511719 L 229.855469 233.015625 Z M 228.367188 237.511719 "/>
<path style=" stroke:none;fill-rule:nonzero;fill:rgb(97.254902%,69.019608%,74.509804%);fill-opacity:1;" d="M 221.207031 270.53125 C 221.207031 268.867188 221.613281 267.199219 221.882812 265.492188 C 221.613281 267.199219 221.433594 268.867188 221.207031 270.53125 Z M 221.207031 270.53125 "/>
<path style=" stroke:none;fill-rule:nonzero;fill:rgb(97.254902%,69.019608%,74.509804%);fill-opacity:1;" d="M 220.171875 299.453125 C 220.171875 296.664062 220.171875 293.875 220.171875 291.085938 C 219.992188 293.875 220.082031 296.890625 220.171875 299.453125 Z M 220.171875 299.453125 "/>
<path style=" stroke:none;fill-rule:nonzero;fill:rgb(97.254902%,69.019608%,74.509804%);fill-opacity:1;" d="M 220.398438 279.570312 C 220.398438 277.683594 220.398438 275.792969 220.847656 273.902344 C 220.710938 275.792969 220.710938 277.683594 220.398438 279.570312 Z M 220.398438 279.570312 "/>
<path style=" stroke:none;fill-rule:nonzero;fill:rgb(97.254902%,69.019608%,74.509804%);fill-opacity:1;" d="M 194.410156 179.933594 C 194.410156 171.511719 201.246094 164.683594 209.679688 164.683594 L 257.683594 164.683594 C 262.714844 164.621094 267.730469 165.152344 272.636719 166.257812 C 304.652344 134.878906 347.53125 117.015625 392.382812 116.371094 C 388.660156 111.339844 384.417969 106.710938 379.726562 102.5625 C 358.019531 83.367188 327.097656 73.757812 286.957031 73.726562 L 113.621094 73.726562 C 98.128906 73.800781 85.609375 86.367188 85.609375 101.84375 L 85.609375 151.324219 C 124.535156 152.832031 162.265625 165.171875 194.546875 186.949219 Z M 194.410156 179.933594 "/>
<path style=" stroke:none;fill-rule:nonzero;fill:rgb(97.254902%,69.019608%,74.509804%);fill-opacity:1;" d="M 226.027344 245.519531 C 226.429688 243.988281 226.835938 242.503906 227.285156 241.019531 C 226.835938 242.503906 226.429688 243.988281 226.027344 245.519531 Z M 226.027344 245.519531 "/>
<path style=" stroke:none;fill-rule:nonzero;fill:rgb(97.254902%,69.019608%,74.509804%);fill-opacity:1;" d="M 231.566406 228.378906 C 231.566406 228.832031 231.25 229.28125 231.070312 229.773438 L 231.609375 228.378906 Z M 231.566406 228.378906 "/>
<path style=" stroke:none;fill-rule:nonzero;fill:rgb(97.254902%,69.019608%,74.509804%);fill-opacity:1;" d="M 222.421875 261.984375 C 222.691406 260.363281 222.964844 258.789062 223.277344 257.214844 C 222.964844 258.789062 222.691406 260.363281 222.421875 261.984375 Z M 222.421875 261.984375 "/>
<path style=" stroke:none;fill-rule:nonzero;fill:rgb(97.254902%,69.019608%,74.509804%);fill-opacity:1;" d="M 220.351562 302.109375 C 220.351562 303.457031 220.351562 304.808594 220.621094 306.15625 C 220.710938 304.808594 220.441406 303.457031 220.351562 302.109375 Z M 220.351562 302.109375 "/>
<path style=" stroke:none;fill-rule:nonzero;fill:rgb(97.254902%,69.019608%,74.509804%);fill-opacity:1;" d="M 224.042969 253.617188 C 224.359375 252.085938 224.71875 250.558594 225.125 249.117188 C 224.71875 250.558594 224.359375 251.90625 224.042969 253.617188 Z M 224.042969 253.617188 "/>
<path style=" stroke:none;fill-rule:nonzero;fill:rgb(47.843137%,83.921569%,81.568627%);fill-opacity:1;" d="M 194.410156 363.058594 L 194.410156 327.703125 C 194.410156 319.28125 201.246094 312.453125 209.679688 312.453125 L 221.253906 312.453125 C 221.253906 311.691406 221.253906 310.878906 221.253906 310.113281 C 221.253906 309.351562 221.253906 308.675781 221.253906 307.957031 C 221.253906 307.234375 221.253906 306.785156 221.253906 306.203125 C 217.917969 306.203125 214.585938 306.425781 211.210938 306.425781 C 166.207031 306.59375 122.28125 292.671875 85.609375 266.617188 L 85.609375 440.835938 C 85.609375 442.34375 85.730469 443.847656 85.96875 445.335938 L 85.96875 446.054688 C 86.203125 447.394531 86.535156 448.71875 86.960938 450.011719 L 87.230469 450.734375 C 87.699219 452.019531 88.273438 453.269531 88.941406 454.464844 C 88.929688 454.554688 88.929688 454.648438 88.941406 454.738281 C 89.59375 455.890625 90.316406 457 91.105469 458.066406 L 91.464844 458.515625 C 92.308594 459.554688 93.226562 460.53125 94.210938 461.4375 L 94.75 461.980469 C 95.765625 462.851562 96.835938 463.664062 97.949219 464.40625 L 98.398438 464.679688 C 99.5 465.402344 100.660156 466.035156 101.867188 466.566406 L 102.273438 466.566406 C 103.527344 467.117188 104.820312 467.570312 106.144531 467.917969 L 106.550781 467.917969 C 121.671875 423.214844 153.023438 385.800781 194.410156 363.058594 Z M 194.410156 363.058594 "/>
<path style=" stroke:none;fill-rule:nonzero;fill:rgb(19.607843%,65.490196%,78.823529%);fill-opacity:1;" d="M 210.578125 306.425781 C 213.957031 306.425781 217.289062 306.425781 220.621094 306.203125 C 220.621094 304.851562 220.621094 303.503906 220.351562 302.152344 C 220.082031 300.804688 220.351562 300.398438 220.351562 299.5 C 220.351562 296.710938 220.351562 293.921875 220.351562 291.132812 C 220.351562 288.34375 220.351562 285.328125 220.351562 282.496094 C 220.351562 281.550781 220.351562 280.605469 220.351562 279.617188 C 220.351562 277.726562 220.351562 275.835938 220.800781 273.949219 C 220.800781 272.824219 220.800781 271.699219 221.160156 270.574219 C 221.523438 269.449219 221.566406 267.246094 221.835938 265.535156 C 222.109375 263.828125 222.199219 263.199219 222.378906 262.027344 C 222.558594 260.859375 222.917969 258.835938 223.234375 257.257812 C 223.550781 255.683594 223.730469 254.875 224 253.660156 C 224.269531 252.445312 224.675781 250.601562 225.078125 249.164062 C 225.484375 247.722656 225.664062 246.777344 225.980469 245.609375 C 226.296875 244.441406 226.792969 242.59375 227.242188 241.109375 L 228.324219 237.601562 L 229.808594 233.105469 L 231.023438 229.730469 C 231.023438 229.234375 231.339844 228.785156 231.519531 228.335938 L 209.679688 228.335938 C 201.246094 228.335938 194.410156 221.507812 194.410156 213.085938 L 194.410156 186.996094 C 162.164062 165.253906 124.484375 152.933594 85.609375 151.414062 L 85.609375 266.617188 C 122.105469 292.546875 165.792969 306.460938 210.578125 306.425781 Z M 210.578125 306.425781 "/>
<path style=" stroke:none;fill-rule:nonzero;fill:rgb(98.039216%,79.215686%,16.862745%);fill-opacity:1;" d="M 409.855469 414.207031 L 407.964844 417.21875 Z M 409.855469 414.207031 "/>
<path style=" stroke:none;fill-rule:nonzero;fill:rgb(98.039216%,79.215686%,16.862745%);fill-opacity:1;" d="M 418.050781 397.203125 L 416.609375 400.9375 Z M 418.050781 397.203125 "/>
<path style=" stroke:none;fill-rule:nonzero;fill:rgb(98.039216%,79.215686%,16.862745%);fill-opacity:1;" d="M 415.574219 403.1875 C 415.078125 404.308594 414.582031 405.433594 414.042969 406.558594 C 414.582031 405.433594 415.078125 404.308594 415.574219 403.1875 Z M 415.574219 403.1875 "/>
<path style=" stroke:none;fill-rule:nonzero;fill:rgb(98.039216%,79.215686%,16.862745%);fill-opacity:1;" d="M 371.441406 450.824219 C 368.511719 452.488281 365.453125 454.015625 362.433594 455.320312 C 365.453125 454.015625 368.511719 452.488281 371.441406 450.824219 Z M 371.441406 450.824219 "/>
<path style=" stroke:none;fill-rule:nonzero;fill:rgb(98.039216%,79.215686%,16.862745%);fill-opacity:1;" d="M 381.214844 444.707031 C 378.421875 446.640625 375.539062 448.484375 372.523438 450.191406 C 375.539062 448.484375 378.332031 446.640625 381.214844 444.707031 Z M 381.214844 444.707031 "/>
<path style=" stroke:none;fill-rule:nonzero;fill:rgb(98.039216%,79.215686%,16.862745%);fill-opacity:1;" d="M 360.902344 456.042969 C 357.796875 457.4375 354.554688 458.695312 351.21875 459.820312 C 354.554688 458.828125 357.796875 457.4375 360.902344 456.042969 Z M 360.902344 456.042969 "/>
<path style=" stroke:none;fill-rule:nonzero;fill:rgb(98.039216%,79.215686%,16.862745%);fill-opacity:1;" d="M 402.917969 424.238281 L 400.488281 427.117188 Z M 402.917969 424.238281 "/>
<path style=" stroke:none;fill-rule:nonzero;fill:rgb(98.039216%,79.215686%,16.862745%);fill-opacity:1;" d="M 398.957031 428.917969 C 398.054688 429.949219 397.109375 430.941406 396.121094 431.929688 C 397.109375 430.941406 398.054688 429.949219 398.957031 428.917969 Z M 398.957031 428.917969 "/>
<path style=" stroke:none;fill-rule:nonzero;fill:rgb(98.039216%,79.215686%,16.862745%);fill-opacity:1;" d="M 390.175781 437.644531 C 387.519531 439.980469 384.726562 442.140625 381.84375 444.210938 C 384.726562 442.140625 387.335938 439.980469 390.175781 437.644531 Z M 390.175781 437.644531 "/>
<path style=" stroke:none;fill-rule:nonzero;fill:rgb(98.039216%,79.215686%,16.862745%);fill-opacity:1;" d="M 406.523438 419.335938 C 405.847656 420.324219 405.125 421.269531 404.40625 422.257812 C 405.351562 421.269531 405.847656 420.324219 406.523438 419.335938 Z M 406.523438 419.335938 "/>
<path style=" stroke:none;fill-rule:nonzero;fill:rgb(98.039216%,79.215686%,16.862745%);fill-opacity:1;" d="M 412.871094 408.808594 C 412.332031 409.886719 411.746094 410.96875 411.160156 412.003906 C 411.746094 410.96875 412.332031 409.886719 412.871094 408.808594 Z M 412.871094 408.808594 "/>
<path style=" stroke:none;fill-rule:nonzero;fill:rgb(98.039216%,79.215686%,16.862745%);fill-opacity:1;" d="M 394.722656 433.371094 C 393.28125 434.855469 391.75 436.25 390.21875 437.867188 C 391.839844 436.339844 393.28125 434.855469 394.722656 433.371094 Z M 394.722656 433.371094 "/>
<path style=" stroke:none;fill-rule:nonzero;fill:rgb(98.039216%,79.215686%,16.862745%);fill-opacity:1;" d="M 286.28125 172.824219 C 292.527344 179.050781 295.804688 187.644531 295.289062 196.441406 C 295.289062 217.703125 283.414062 228.351562 259.667969 228.378906 L 231.746094 228.378906 L 231.203125 229.773438 L 229.988281 233.148438 L 228.503906 237.648438 L 227.421875 241.15625 C 226.972656 242.640625 226.566406 244.125 226.160156 245.652344 C 225.753906 247.183594 225.53125 247.992188 225.261719 249.207031 C 224.988281 250.421875 224.496094 252.222656 224.179688 253.707031 C 223.863281 255.191406 223.640625 256.089844 223.414062 257.304688 C 223.1875 258.519531 222.828125 260.453125 222.558594 262.074219 C 222.289062 263.691406 222.152344 264.410156 222.019531 265.582031 C 221.882812 266.75 221.566406 268.957031 221.34375 270.621094 C 221.117188 272.285156 221.070312 272.867188 220.980469 273.992188 C 220.757812 275.882812 220.667969 277.773438 220.53125 279.660156 C 220.53125 280.652344 220.53125 281.597656 220.53125 282.539062 C 220.53125 285.375 220.53125 288.253906 220.53125 291.175781 C 220.53125 294.101562 220.53125 296.753906 220.53125 299.542969 C 220.53125 300.445312 220.53125 301.296875 220.53125 302.199219 C 220.53125 303.097656 220.53125 304.898438 220.847656 306.246094 L 220.847656 308.046875 C 220.847656 308.765625 220.847656 309.484375 220.847656 310.207031 C 220.847656 310.925781 220.847656 311.78125 221.160156 312.542969 L 260.566406 312.542969 C 284.734375 312.542969 297.585938 321.855469 299.117188 340.480469 C 344.382812 343.703125 386.933594 363.238281 418.863281 395.449219 C 423.820312 380.976562 426.242188 365.757812 426.023438 350.464844 C 425.902344 326.742188 421.128906 308.886719 411.703125 296.890625 C 401.457031 284.21875 388.117188 274.398438 372.972656 268.371094 C 385.125 259.878906 394.957031 248.480469 401.570312 235.21875 C 409.171875 219.328125 412.863281 201.855469 412.332031 184.25 C 412.332031 156.8125 405.683594 134.214844 392.382812 116.460938 C 347.5625 117.042969 304.6875 134.828125 272.636719 166.125 C 277.683594 167.15625 282.382812 169.464844 286.28125 172.824219 Z M 286.28125 172.824219 "/>
<path style=" stroke:none;fill-rule:nonzero;fill:rgb(93.333333%,22.352941%,13.72549%);fill-opacity:1;" d="M 301.367188 468.679688 L 306.636719 468.410156 L 309.652344 468.140625 C 311.230469 468.140625 312.761719 468.140625 314.15625 467.738281 L 317.265625 467.375 L 321.769531 466.835938 L 324.875 466.34375 L 328.929688 465.667969 L 332.035156 465.039062 C 333.34375 464.769531 334.601562 464.542969 335.863281 464.226562 L 338.925781 463.507812 L 342.574219 462.519531 L 345.546875 461.664062 C 346.71875 461.347656 347.886719 460.945312 349.058594 460.585938 L 350.410156 460.132812 C 323.679688 453.132812 298.984375 439.90625 278.355469 421.539062 C 273.394531 438.152344 266.375 454.078125 257.460938 468.953125 L 290.515625 468.953125 C 293.246094 468.953125 295.949219 468.953125 298.621094 468.953125 Z M 301.367188 468.679688 "/>
<path style=" stroke:none;fill-rule:nonzero;fill:rgb(88.235294%,12.54902%,15.686275%);fill-opacity:1;" d="M 243.542969 378.714844 L 209.679688 378.714844 C 201.246094 378.714844 194.410156 371.886719 194.410156 363.464844 L 194.410156 363.058594 C 153.066406 385.867188 121.78125 423.332031 106.730469 468.050781 L 107.226562 468.050781 C 107.945312 468.050781 108.667969 468.320312 109.386719 468.457031 L 110.378906 468.457031 C 111.457031 468.523438 112.539062 468.523438 113.621094 468.457031 L 257.730469 468.457031 C 266.644531 453.582031 273.664062 437.65625 278.625 421.042969 C 264.789062 408.855469 252.949219 394.570312 243.542969 378.714844 Z M 243.542969 378.714844 "/>
<path style=" stroke:none;fill-rule:nonzero;fill:rgb(100%,35.294118%,4.313725%);fill-opacity:1;" d="M 299.296875 340.390625 C 299.296875 341.648438 299.296875 342.996094 299.296875 344.347656 C 299.296875 367.289062 286.808594 378.746094 261.828125 378.714844 L 243.363281 378.714844 C 266.722656 418.957031 305.160156 448.257812 350.183594 460.132812 L 351.039062 459.820312 C 354.371094 458.695312 357.617188 457.4375 360.722656 456.042969 L 362.164062 455.410156 C 365.269531 454.015625 368.332031 452.488281 371.171875 450.914062 C 371.546875 450.730469 371.90625 450.519531 372.25 450.285156 C 375.269531 448.574219 378.152344 446.730469 380.941406 444.796875 L 381.574219 444.300781 C 384.457031 442.230469 387.246094 440.070312 389.90625 437.734375 C 391.480469 436.339844 393.011719 434.945312 394.40625 433.234375 C 394.902344 432.785156 395.355469 432.289062 395.804688 431.796875 C 396.253906 431.300781 397.742188 429.816406 398.640625 428.78125 C 399.542969 427.746094 399.675781 427.613281 400.171875 426.980469 L 402.605469 424.101562 L 404.089844 422.125 C 404.8125 421.132812 405.53125 420.1875 406.207031 419.199219 L 407.648438 417.085938 L 409.539062 414.070312 L 410.84375 411.867188 C 411.429688 410.832031 412.015625 409.753906 412.558594 408.671875 C 413.097656 407.59375 413.324219 407.1875 413.726562 406.425781 C 414.132812 405.660156 414.761719 404.175781 415.257812 403.050781 C 415.753906 401.925781 415.980469 401.566406 416.292969 400.800781 L 417.734375 397.066406 C 417.960938 396.484375 418.1875 395.898438 418.367188 395.3125 C 386.609375 363.25 344.324219 343.726562 299.296875 340.34375 Z M 299.296875 340.390625 "/>
<path style=" stroke:none;fill-rule:nonzero;fill:rgb(98.039216%,79.215686%,16.862745%);fill-opacity:1;" d="M 499.472656 184.117188 C 499.472656 201.878906 485.054688 216.28125 467.273438 216.28125 C 449.488281 216.28125 435.074219 201.878906 435.074219 184.117188 C 435.074219 166.355469 449.488281 151.953125 467.273438 151.953125 C 485.054688 151.953125 499.472656 166.355469 499.472656 184.117188 Z M 499.472656 184.117188 "/>
<path style=" stroke:none;fill-rule:nonzero;fill:rgb(98.039216%,79.215686%,16.862745%);fill-opacity:1;" d="M 457.953125 240.257812 C 450.785156 231.660156 437.996094 230.496094 429.398438 237.664062 C 420.796875 244.828125 419.644531 257.601562 426.824219 266.1875 C 434.007812 274.769531 446.796875 275.910156 455.382812 268.730469 C 459.507812 265.296875 462.097656 260.367188 462.578125 255.023438 C 463.0625 249.683594 461.394531 244.371094 457.953125 240.257812 Z M 457.953125 240.257812 "/>
<path style=" stroke:none;fill-rule:nonzero;fill:rgb(93.333333%,22.352941%,13.72549%);fill-opacity:1;" d="M 218.460938 498.59375 C 207.289062 499.289062 198.792969 508.898438 199.488281 520.058594 C 200.183594 531.214844 209.808594 539.699219 220.980469 539.003906 C 232.152344 538.304688 240.640625 528.691406 239.941406 517.535156 C 239.242188 506.378906 229.625 497.902344 218.460938 498.59375 Z M 218.460938 498.59375 "/>
<path style=" stroke:none;fill-rule:nonzero;fill:rgb(93.333333%,22.352941%,13.72549%);fill-opacity:1;" d="M 462.09375 503.453125 C 462.09375 523.105469 446.144531 539.035156 426.472656 539.035156 C 406.800781 539.035156 390.851562 523.105469 390.851562 503.453125 C 390.851562 483.800781 406.800781 467.871094 426.472656 467.871094 C 446.144531 467.871094 462.09375 483.800781 462.09375 503.453125 Z M 462.09375 503.453125 "/>
<path style=" stroke:none;fill-rule:nonzero;fill:rgb(94.509804%,34.901961%,25.882353%);fill-opacity:1;" d="M 180.765625 503.902344 C 180.765625 511.804688 174.355469 518.207031 166.445312 518.207031 C 158.535156 518.207031 152.125 511.804688 152.125 503.902344 C 152.125 496.003906 158.535156 489.597656 166.445312 489.597656 C 174.355469 489.597656 180.765625 496.003906 180.765625 503.902344 Z M 180.765625 503.902344 "/>
<path style=" stroke:none;fill-rule:nonzero;fill:rgb(97.254902%,69.019608%,74.509804%);fill-opacity:1;" d="M 132.355469 28.472656 C 132.355469 36.375 125.941406 42.777344 118.035156 42.777344 C 110.125 42.777344 103.714844 36.375 103.714844 28.472656 C 103.714844 20.574219 110.125 14.167969 118.035156 14.167969 C 125.941406 14.167969 132.355469 20.574219 132.355469 28.472656 Z M 132.355469 28.472656 "/>
<path style=" stroke:none;fill-rule:nonzero;fill:rgb(97.254902%,69.019608%,74.509804%);fill-opacity:1;" d="M 88.265625 36.03125 C 88.265625 55.929688 72.117188 72.0625 52.195312 72.0625 C 32.273438 72.0625 16.121094 55.929688 16.121094 36.03125 C 16.121094 16.132812 32.273438 0 52.195312 0 C 72.117188 0 88.265625 16.132812 88.265625 36.03125 Z M 88.265625 36.03125 "/>
<path style=" stroke:none;fill-rule:nonzero;fill:rgb(47.843137%,83.921569%,81.568627%);fill-opacity:1;" d="M 64.488281 300.804688 C 64.542969 287.765625 56.722656 275.980469 44.675781 270.953125 C 32.632812 265.921875 18.742188 268.644531 9.492188 277.847656 C 0.242188 287.046875 -2.542969 300.910156 2.441406 312.960938 C 7.425781 325.015625 19.191406 332.875 32.242188 332.875 C 50 332.875 64.414062 318.539062 64.488281 300.804688 Z M 64.488281 300.804688 "/>
<path style=" stroke:none;fill-rule:nonzero;fill:rgb(47.843137%,83.921569%,81.568627%);fill-opacity:1;" d="M 64.082031 219.832031 C 64.082031 207.261719 53.882812 197.070312 41.296875 197.070312 C 28.710938 197.070312 18.507812 207.261719 18.507812 219.832031 C 18.507812 232.40625 28.710938 242.59375 41.296875 242.59375 C 53.871094 242.570312 64.058594 232.394531 64.082031 219.832031 Z M 64.082031 219.832031 "/>
</g>
</svg>
