<svg width="25" height="19" viewBox="0 0 25 19" fill="none" xmlns="http://www.w3.org/2000/svg">
<path fill-rule="evenodd" clip-rule="evenodd" d="M14.9326 6.59964C16.1714 6.56988 17.278 5.81748 17.7611 4.67647C17.8643 4.71994 17.9746 4.74392 18.0864 4.74717H23.7436C24.3294 4.74717 24.8043 4.27234 24.8043 3.6866C24.8043 3.10087 24.3294 2.62603 23.7436 2.62603H18.1571C18.0961 2.61803 18.0343 2.61803 17.9733 2.62603C17.5682 1.03461 16.0094 0.0204116 14.3901 0.294686C12.7708 0.56896 11.6331 2.03989 11.7748 3.67592C11.9165 5.31195 13.2902 6.56539 14.9326 6.55722V6.59964ZM14.9326 2.42806C15.5028 2.42806 15.965 2.89023 15.965 3.46035C15.965 4.03047 15.5028 4.49264 14.9326 4.49264C14.3624 4.49264 13.9001 4.03047 13.9001 3.46035C13.9001 2.89023 14.3624 2.42806 14.9326 2.42806Z" fill="black"/>
<path d="M1.18571 2.62603H9.67143C10.2572 2.62603 10.7321 3.10087 10.7321 3.6866C10.7321 4.27234 10.2572 4.74718 9.67143 4.74718H1.18571C0.599898 4.74718 0.125 4.27234 0.125 3.6866C0.125 3.10087 0.599898 2.62603 1.18571 2.62603Z" fill="black"/>
<path fill-rule="evenodd" clip-rule="evenodd" d="M3.887 13.9388C4.32999 12.686 5.51388 11.8478 6.84286 11.8459V11.8177C8.44215 11.8156 9.78981 13.0108 9.97867 14.5987C10.1675 16.1866 9.13781 17.6645 7.58264 18.0375C6.02747 18.4106 4.43923 17.5607 3.887 16.0599H1.18571C0.599898 16.0599 0.125 15.5851 0.125 14.9994C0.125 14.4136 0.599898 13.9388 1.18571 13.9388H3.887ZM5.81214 15.0738C5.82185 15.6362 6.28022 16.0874 6.84286 16.0882V16.0317C7.41305 16.0317 7.87529 15.5695 7.87529 14.9994C7.84446 14.4376 7.36947 14.004 6.8072 14.0243C6.24493 14.0446 5.80242 14.5113 5.81214 15.0738Z" fill="black"/>
<path d="M12.5 13.9388H23.8143C24.4001 13.9388 24.875 14.4136 24.875 14.9994C24.875 15.5851 24.4001 16.0599 23.8143 16.0599H12.5C11.9142 16.0599 11.4393 15.5851 11.4393 14.9994C11.4393 14.4136 11.9142 13.9388 12.5 13.9388Z" fill="black"/>
</svg>
