<svg width="34" height="36" viewBox="0 0 34 36" fill="none" xmlns="http://www.w3.org/2000/svg">
<path fill-rule="evenodd" clip-rule="evenodd" d="M19.6766 1.15169L30.6766 7.25669C32.4248 8.23059 33.5061 10.0772 33.5 12.0784V23.9217C33.5061 25.9229 32.4248 27.7695 30.6766 28.7434L19.6766 34.8484C18.0126 35.7754 15.9873 35.7754 14.3233 34.8484L3.3233 28.7434C1.57509 27.7695 0.493809 25.9229 0.499965 23.9217V12.0784C0.493809 10.0772 1.57509 8.23059 3.3233 7.25669L14.3233 1.15169C15.9873 0.224665 18.0126 0.224665 19.6766 1.15169ZM29.265 26.3417C30.1335 25.8446 30.6715 24.9224 30.6766 23.9217V12.0784C30.6715 11.0776 30.1335 10.1554 29.265 9.65836L18.265 3.55336C17.4329 3.08984 16.4203 3.08984 15.5883 3.55336L4.5883 9.65836C3.71974 10.1554 3.1818 11.0776 3.17663 12.0784V23.9217C3.1818 24.9224 3.71974 25.8446 4.5883 26.3417L15.5883 32.4467C16.4203 32.9102 17.4329 32.9102 18.265 32.4467L29.265 26.3417Z" fill="black"/>
<path d="M25.58 11.0334L17.825 15.3417C17.3145 15.6364 16.6855 15.6364 16.175 15.3417L8.41999 11.0334C7.99005 10.7817 7.45765 10.7824 7.02829 11.035C6.59893 11.2876 6.33977 11.7526 6.35084 12.2506C6.36192 12.7487 6.64149 13.2018 7.08166 13.435L14.8367 17.7434C15.0939 17.8799 15.3641 17.9904 15.6433 18.0734V26.25C15.6433 27.0094 16.2589 27.625 17.0183 27.625C17.7777 27.625 18.3933 27.0094 18.3933 26.25V18C18.6613 17.9266 18.9197 17.822 19.1633 17.6884L26.9183 13.38C27.564 13.0022 27.7891 12.1775 27.4249 11.524C27.0608 10.8705 26.241 10.6281 25.58 10.9784V11.0334Z" fill="black"/>
</svg>
