<svg width="26" height="32" viewBox="0 0 26 32" fill="none" xmlns="http://www.w3.org/2000/svg">
<path fill-rule="evenodd" clip-rule="evenodd" d="M25.0017 23.4575L25.3817 25.2625C25.7418 26.823 25.3862 28.4628 24.4121 29.7341C23.438 31.0053 21.9471 31.7751 20.3467 31.8333H5.65332C4.05285 31.7751 2.56197 31.0053 1.58787 29.7341C0.613769 28.4628 0.258217 26.823 0.61832 25.2625L0.99832 23.4575C1.43538 21.0141 3.5358 19.2184 6.01749 19.1667H19.9825C22.4642 19.2184 24.5646 21.0141 25.0017 23.4575ZM20.3467 29.4425C21.1507 29.4332 21.9073 29.0607 22.405 28.4292V28.445C23.0157 27.679 23.2536 26.6808 23.0542 25.7217L22.6742 23.9167C22.4633 22.579 21.3357 21.5774 19.9825 21.5258H6.01749C4.66432 21.5774 3.53667 22.579 3.32583 23.9167L2.94583 25.7217C2.75132 26.6758 2.98899 27.667 3.59499 28.4292C4.09269 29.0607 4.84932 29.4332 5.65333 29.4425H20.3467Z" fill="black"/>
<path fill-rule="evenodd" clip-rule="evenodd" d="M13.7916 16H12.2083C8.71049 16 5.87496 13.1645 5.87496 9.66665V5.48665C5.87074 4.07441 6.42988 2.71879 7.42849 1.72018C8.4271 0.72157 9.78272 0.162428 11.195 0.16665H14.805C16.2172 0.162428 17.5728 0.72157 18.5714 1.72018C19.57 2.71879 20.1292 4.07441 20.125 5.48665V9.66665C20.125 13.1645 17.2894 16 13.7916 16ZM11.195 2.54165C9.56848 2.54165 8.24996 3.86017 8.24996 5.48665V9.66665C8.24996 11.8528 10.0222 13.625 12.2083 13.625H13.7916C15.9778 13.625 17.75 11.8528 17.75 9.66665V5.48665C17.75 4.70559 17.4397 3.95651 16.8874 3.40422C16.3351 2.85193 15.586 2.54165 14.805 2.54165H11.195Z" fill="black"/>
</svg>
