<svg width="23" height="25" viewBox="0 0 23 25" fill="none" xmlns="http://www.w3.org/2000/svg">
<path fill-rule="evenodd" clip-rule="evenodd" d="M1.29907 7.17656C3.04403 2.84146 7.13255 0.0127059 11.6714 0.000163108C16.5632 -0.0264887 20.9129 3.21535 22.4378 8.02439C23.9627 12.8334 22.3144 18.1111 18.358 21.0877C14.4015 24.0643 9.04078 24.0598 5.08897 21.0767L1.56528 24.7223C1.20701 25.0926 0.626627 25.0926 0.268363 24.7223C-0.0894545 24.3517 -0.0894545 23.7512 0.268363 23.3805L3.68194 19.8488C0.493369 16.5067 -0.445898 11.5117 1.29907 7.17656ZM2.93508 15.4043C4.40019 19.0571 7.84887 21.4362 11.6714 21.4311V21.3805C16.8594 21.3736 21.071 17.0389 21.1046 11.6714C21.1096 7.71649 18.8101 4.14843 15.2795 2.6326C11.7488 1.11677 7.6832 1.95205 4.98025 4.74857C2.2773 7.54509 1.46996 11.7514 2.93508 15.4043Z" fill="black"/>
</svg>
