<svg width="30" height="24" viewBox="0 0 30 24" fill="none" xmlns="http://www.w3.org/2000/svg">
<path d="M28.7254 13.44L22.5254 7.25333C22.2793 7.00211 21.9438 6.85834 21.5921 6.85333C21.2358 6.85481 20.8949 6.99886 20.6454 7.25333L14.4454 13.44C14.193 13.6904 14.051 14.0312 14.051 14.3867C14.051 14.7422 14.193 15.083 14.4454 15.3333C14.6958 15.5858 15.0366 15.7277 15.3921 15.7277C15.7476 15.7277 16.0884 15.5858 16.3388 15.3333L20.2588 11.4133V22.6667C20.2588 23.403 20.8557 24 21.5921 24C22.3285 24 22.9254 23.403 22.9254 22.6667V11.4133L26.8321 15.3333C27.3549 15.8562 28.2026 15.8562 28.7254 15.3333C29.2483 14.8105 29.2483 13.9628 28.7254 13.44Z" fill="black"/>
<path d="M15.0054 8.38667C14.7551 8.13425 14.4143 7.99227 14.0588 7.99227C13.7033 7.99227 13.3625 8.13425 13.1121 8.38667L9.20543 12.3067V1.33333C9.20543 0.596954 8.60848 0 7.8721 0C7.13572 0 6.53877 0.596954 6.53877 1.33333V12.3067L2.61877 8.38667C2.09594 7.86384 1.24826 7.86384 0.725435 8.38667C0.202606 8.9095 0.202606 9.75717 0.725435 10.28L6.92543 16.4667C7.44549 16.9836 8.28538 16.9836 8.80543 16.4667L15.0054 10.28C15.2579 10.0296 15.3998 9.68885 15.3998 9.33333C15.3998 8.97782 15.2579 8.63702 15.0054 8.38667Z" fill="black"/>
</svg>
