<?xml version="1.0" encoding="utf-8"?>

<!-- Uploaded to: SVG Repo, www.svgrepo.com, Generator: SVG Repo Mixer Tools -->
<svg version="1.1" id="Icons" xmlns="http://www.w3.org/2000/svg" xmlns:xlink="http://www.w3.org/1999/xlink" 
	 viewBox="0 0 32 32" xml:space="preserve">
<style type="text/css">
	.st0{fill:none;stroke:#000000;stroke-width:2;stroke-linecap:round;stroke-linejoin:round;stroke-miterlimit:10;}
	.st1{fill:none;stroke:#000000;stroke-width:2;stroke-linejoin:round;stroke-miterlimit:10;}
</style>
<path class="st0" d="M20.3,29c1.7-2.7,2.7-6.8,2.7-11.5C23,9.5,19.9,3,16,3c-3.9,0-7,6.5-7,14.5c0,4.7,1.1,8.8,2.7,11.5H20.3z"/>
<circle class="st0" cx="16" cy="18" r="3"/>
<path class="st0" d="M10.3,9L10.3,9c3.5,1.9,7.8,1.9,11.3,0l0,0"/>
<path class="st0" d="M8.1,16c-2,0-3.7,2.9-3.7,6.5c0,2.4,0.7,4.4,1.8,5.5H10"/>
<path class="st0" d="M23.9,16c2,0,3.7,2.9,3.7,6.5c0,2.4-0.7,4.4-1.8,5.5H22"/>
</svg>